<svg xmlns="http://www.w3.org/2000/svg" xmlns:xlink="http://www.w3.org/1999/xlink" viewBox="0 0 273.5 79.9"><path d="M68.1 48.6c1.6-.2 2.7-.5 3.2-.9s.7-1.5.7-3.2v-20c0-1.6-.2-2.7-.7-3.2s-1.6-.8-3.2-.9v-.8h12.1c4.1 0 7.5.7 10.4 2 5.1 2.4 7.7 6.7 7.7 13 0 2.2-.5 4.4-1.4 6.4s-2.3 3.7-4.1 5.1c-1.2.9-2.4 1.5-3.6 2-2.3.9-5.1 1.3-8.5 1.3H68.1v-.8zm9-1.1c.4.2 1.1.4 2.2.4 3.5 0 6.4-.7 8.7-2.1 3.5-2.1 5.2-5.8 5.2-11 0-4.6-1.4-8.1-4.3-10.4-2.5-2-5.7-3-9.8-3-1 0-1.7.1-2.1.3s-.5.7-.5 1.5V46c.1.7.3 1.2.6 1.5zm22.5 1.4c1.6-.1 2.6-.4 3-.8s.6-1.4.6-3.2V34.4c0-1-.1-1.6-.2-2-.2-.6-.7-.9-1.4-.9h-.5c-.2 0-.6.1-1.3.4v-.7l.9-.3 5.4-1.9c.4-.2.7-.3.8-.3v.3 15.8c0 1.7.2 2.7.6 3.1s1.3.7 2.7.8v.6H99.6v-.4zm3.5-29.4c.4-.5 1-.7 1.6-.7s1.2.2 1.6.7.7 1 .7 1.6-.2 1.2-.7 1.6-1 .7-1.6.7-1.2-.2-1.6-.7c-.4-.4-.7-1-.7-1.6.1-.6.3-1.2.7-1.6zm15.2 9.6v.7c-.8.1-1.3.2-1.6.4s-.5.5-.5 1c0 .2 0 .5.1.7s.2.5.3.9l4.6 11 3.9-9.8c.2-.5.4-1 .5-1.5.2-.5.3-.9.3-1.2 0-.6-.3-1-.8-1.2-.3-.1-.8-.2-1.3-.3v-.7h6.2v.7c-.7.1-1.2.3-1.6.7-.3.4-.8 1.4-1.4 2.9l-6.4 15.8c-.1.3-.2.5-.3.6s-.2.2-.3.2-.3-.1-.4-.3l-.3-.6-6.7-16.1c-.5-1.3-1.1-2.2-1.7-2.7-.4-.3-.9-.4-1.6-.5v-.7h9zm26.3 1.9c1.6 1.4 2.3 3.5 2.3 6.1h-14c.1 3.4.9 5.9 2.3 7.4s3 2.3 4.9 2.3c1.5 0 2.8-.4 3.9-1.2s2-1.9 2.9-3.4l.8.3c-.6 1.9-1.7 3.6-3.4 5.2-1.6 1.6-3.7 2.4-6.1 2.4-2.8 0-4.9-1-6.4-3.1s-2.3-4.5-2.3-7.2c0-2.9.9-5.5 2.6-7.6s4-3.2 6.8-3.2c2.3-.1 4.1.6 5.7 2zm-10.5 1.7c-.5.8-.8 1.8-1 3h9.3c-.2-1.5-.4-2.6-.8-3.3-.7-1.3-1.9-1.9-3.6-1.9-1.8 0-3.1.7-3.9 2.2zm13.8 16.1c1.3-.1 2.2-.4 2.7-.7.4-.4.7-1.1.7-2.3v-9.9c0-1.5-.1-2.5-.4-3.1s-.8-.9-1.5-.9c-.1 0-.3 0-.6.1-.2 0-.5.1-.8.1v-.7l2.6-.9 1.8-.7 2.3-.9c.1 0 .2 0 .2.1v.5 3.6c.9-1.3 1.8-2.3 2.7-3.1.9-.7 1.8-1.1 2.7-1.1.8 0 1.4.2 1.8.7.5.4.7 1 .7 1.7 0 .6-.2 1.1-.5 1.5-.4.4-.8.6-1.4.6s-1.1-.3-1.7-.8-1-.8-1.3-.8c-.5 0-1.1.4-1.9 1.2-.7.8-1.1 1.7-1.1 2.6v9.9c0 1.3.3 2.1.9 2.6s1.6.7 2.9.7v.7h-10.8v-.7zm16.3-6.2h.7c.3 1.7.8 3 1.4 3.8 1 1.6 2.5 2.5 4.5 2.5 1.1 0 2-.3 2.6-.9a3.31 3.31 0 0 0 1-2.4c0-.6-.2-1.2-.5-1.8-.4-.6-1-1.1-1.9-1.7l-2.5-1.4c-1.8-1-3.1-1.9-4-2.9s-1.3-2.1-1.3-3.5c0-1.6.6-3 1.8-4 1.2-1.1 2.6-1.6 4.4-1.6.8 0 1.6.1 2.6.4.9.3 1.5.4 1.6.4.3 0 .5 0 .6-.1s.2-.2.3-.4h.5l.2 6.1h-.7c-.3-1.4-.7-2.5-1.2-3.3-.9-1.5-2.2-2.2-3.9-2.2-1 0-1.8.3-2.4.9s-.9 1.4-.9 2.2c0 1.3 1 2.6 3 3.6l2.9 1.6c3.1 1.7 4.7 3.7 4.7 5.9 0 1.7-.6 3.1-1.9 4.2s-3 1.6-5.1 1.6a11.28 11.28 0 0 1-3-.4c-1.1-.3-1.8-.4-2-.4s-.3.1-.5.2-.2.3-.3.5h-.6v-6.9zm14.9 6.3c1.6-.1 2.6-.4 3-.8s.6-1.4.6-3.2V34.4c0-1-.1-1.6-.2-2-.2-.6-.7-.9-1.4-.9h-.5c-.2 0-.6.1-1.3.4v-.7l.9-.3 5.4-1.9c.4-.2.7-.3.8-.3v.3 15.8c0 1.7.2 2.7.6 3.1s1.3.7 2.7.8v.6H179v-.4zm3.5-29.4c.4-.5 1-.7 1.6-.7s1.2.2 1.6.7.7 1 .7 1.6-.2 1.2-.7 1.6-1 .7-1.6.7-1.2-.2-1.6-.7c-.4-.4-.7-1-.7-1.6s.2-1.2.7-1.6zm8.5 29.4c1.6-.1 2.6-.4 3.1-.9s.7-1.6.7-3.2V30.7h-3.8v-1.5h3.8c0-2.3.3-4.3.9-5.9 1.2-3.1 3.4-4.6 6.6-4.6 1.3 0 2.4.3 3.5.8 1 .5 1.5 1.2 1.5 2.1 0 .5-.2.9-.5 1.3-.4.4-.8.6-1.3.6-.4 0-.8-.1-1.1-.4s-.7-.7-1.1-1.4l-.4-.6c-.2-.3-.4-.6-.7-.8s-.7-.3-1.2-.3c-1.1 0-1.9.5-2.3 1.6-.2.6-.3 1.4-.3 2.3v5.2h5.5v1.5h-5.5v14.1c0 1.7.2 2.7.7 3.2s1.6.8 3.5.9v.6H191v-.5zm14.6 0c1.6-.1 2.6-.4 3-.8s.6-1.4.6-3.2V34.4c0-1-.1-1.6-.2-2-.2-.6-.7-.9-1.4-.9h-.5c-.2 0-.6.1-1.3.4v-.7l.9-.3 5.4-1.9c.4-.2.7-.3.8-.3v.3 15.8c0 1.7.2 2.7.6 3.1s1.3.7 2.7.8v.6h-10.7v-.4zm3.5-29.4c.4-.5 1-.7 1.6-.7s1.2.2 1.6.7.7 1 .7 1.6-.2 1.2-.7 1.6-1 .7-1.6.7-1.2-.2-1.6-.7c-.4-.4-.7-1-.7-1.6s.2-1.2.7-1.6zM230.8 31c1.6 1.4 2.3 3.5 2.3 6.1h-14c.1 3.4.9 5.9 2.3 7.4s3 2.3 4.9 2.3c1.5 0 2.8-.4 3.9-1.2s2-1.9 2.9-3.4l.8.3c-.6 1.9-1.7 3.6-3.4 5.2-1.6 1.6-3.7 2.4-6.1 2.4-2.8 0-4.9-1-6.4-3.1s-2.3-4.5-2.3-7.2c0-2.9.9-5.5 2.6-7.6s4-3.2 6.8-3.2c2.3-.1 4.2.6 5.7 2zm-10.5 1.7c-.5.8-.8 1.8-1 3h9.3c-.2-1.5-.4-2.6-.8-3.3-.7-1.3-1.9-1.9-3.6-1.9-1.8 0-3 .7-3.9 2.2zm27.9-3.3c.6.3 1.2.7 1.7 1.3v-7c0-.9-.1-1.5-.3-1.8s-.7-.5-1.4-.5h-.5c-.2 0-.4 0-.9.1v-.7l1.8-.5c.7-.2 1.3-.4 2-.5l1.7-.5c.2-.1.6-.2 1.2-.4h.1v2.3 2.6 2.6 18c0 1 .1 1.6.4 2 .2.4.9.6 1.9.6h.5c.2 0 .3 0 .5-.1v.7c-.1 0-1.2.4-3.2 1.1l-3.5 1.3-.2-.2V47c-.8.9-1.5 1.5-2.1 1.9-1.1.7-2.3 1-3.7 1-2.5 0-4.5-1-6.1-2.9-1.5-1.9-2.3-4.2-2.3-6.7 0-3.2.9-5.9 2.8-8.2s4.1-3.4 6.8-3.4c.9 0 1.9.2 2.8.7zm.6 17.1c.7-.7 1.1-1.3 1.1-1.9v-9.4c0-1.9-.5-3.2-1.5-4s-2-1.2-3-1.2c-1.8 0-3.3.8-4.3 2.5-1 1.6-1.5 3.6-1.5 6s.5 4.5 1.6 6.3 2.7 2.8 4.9 2.8c1.1-.1 2-.4 2.7-1.1z" fill="#00945e"/><g fill="#6e6f72"><use xlink:href="#B"/><path d="M77.9 54.7h.6l1.4 2.1 1.5-2.1h.5l-1.7 2.4 1.8 2.6h-.6l-1.5-2.2-1.5 2.2h-.5l1.8-2.6-1.8-2.4zm7.6 0h2.2c.9 0 1.5.5 1.5 1.4s-.6 1.4-1.5 1.4H86v2.1h-.5v-4.9zm.5 2.5h1.6c.7 0 1.1-.3 1.1-1s-.5-1-1.1-1H86v2z"/><use xlink:href="#B" x="22"/><path d="M100.4 54.7h2.3c.8 0 1.5.4 1.5 1.3 0 .6-.3 1.1-1 1.3h0c.7.1.8.5.9 1.1 0 .3 0 1 .2 1.3h-.5c-.1-.2-.1-.6-.1-.8 0-.7-.1-1.5-1-1.4h-1.8v2.2h-.5v-5zm.5 2.4h1.8c.6 0 1.1-.4 1.1-1s-.4-1-1.1-1h-1.8v2zm7.4-2.4h.5v5h-.5v-5z"/><use xlink:href="#B" x="41.8"/><path d="M120.2 54.7h.5l2.9 4.2h0v-4.2h.5v5h-.5l-2.9-4.2h0v4.2h-.5v-5zm11.8 1.5c-.2-.8-.8-1.2-1.5-1.2-1.3 0-1.9 1.1-1.9 2.2s.6 2.2 1.9 2.2c.9 0 1.5-.7 1.6-1.6h.5c-.1 1.2-.9 2-2.1 2-1.6 0-2.4-1.2-2.4-2.6s.8-2.6 2.4-2.6c.9 0 1.9.6 2 1.6h-.5z"/><use xlink:href="#B" x="65.3"/><path d="M148.8 54.7h.5v4.6h2.8v.4h-3.3v-5zm6.9 0h.5v5h-.5v-5zm4.7 0h3.2v.4h-2.7v1.8h2.4v.4h-2.4v2.4h-.5v-5z"/><use xlink:href="#B" x="96.2"/><path d="M174.6 54.7h.5v4.6h2.8v.4h-3.3v-5zm9-.1c1.6 0 2.4 1.2 2.4 2.6s-.8 2.6-2.4 2.6-2.4-1.2-2.4-2.6.8-2.6 2.4-2.6zm0 4.8c1.3 0 1.9-1.1 1.9-2.2s-.6-2.2-1.9-2.2-1.9 1.1-1.9 2.2.6 2.2 1.9 2.2zm6.2-4.7h.5l2.9 4.2h0v-4.2h.5v5h-.5l-2.9-4.2h0v4.2h-.5v-5zm12.4 5h-.3l-.1-.9h0c-.3.7-1 1-1.7 1-1.6 0-2.4-1.2-2.4-2.6s.8-2.6 2.4-2.6c1.1 0 1.9.6 2.1 1.7h-.5c-.1-.6-.7-1.3-1.6-1.3-1.3 0-1.9 1.1-1.9 2.2s.6 2.2 1.9 2.2c1.1 0 1.8-.8 1.7-1.8h-1.7v-.4h2.1v2.5zm8.7-5h.5l1.1 4.4h0l1.2-4.4h.6l1.2 4.4h0l1.1-4.4h.5l-1.4 5h-.5l-1.3-4.5h0l-1.3 4.5h-.5l-1.2-5z"/><use xlink:href="#B" x="149.8"/><path d="M229.6 54.7h.5l2 5h-.5l-.6-1.6h-2.3l-.6 1.6h-.5l2-5zm-.7 3h2l-1-2.6-1 2.6zm6.8-3h.5v4.6h2.8v.4h-3.3v-5zm5.7 0h4v.4h-1.7v4.6h-.5v-4.6h-1.7v-.4zm7.6 0h.5v2.2h3v-2.2h.5v5h-.5v-2.4h-3v2.4h-.5v-5zM64.8 61.5l-14-24.3C40.9 44.7 34.3 56.4 35 61.5h29.8 0z"/></g><path d="M45.6 28.3l-6.3-10.9-25.4 44.1h5.4 9.9 4.4c1.6-12 10.9-20.4 16.5-25.4l-3.8-6.6-.7-1.2z" fill="#00945e"/><defs ><path id="B" d="M71.1 54.7h3.5v.4h-3v1.8h2.8v.4h-2.8v2h3v.4h-3.5v-5z"/></defs></svg>